<?xml version="1.0" standalone="no"?>
<!DOCTYPE svg PUBLIC "-//W3C//DTD SVG 20010904//EN"
 "http://www.w3.org/TR/2001/REC-SVG-20010904/DTD/svg10.dtd">
<svg version="1.0" xmlns="http://www.w3.org/2000/svg"
 width="512.000000pt" height="512.000000pt" viewBox="0 0 512.000000 512.000000"
 preserveAspectRatio="xMidYMid meet">
<metadata>
Created by potrace 1.11, written by Peter Selinger 2001-2013
</metadata>
<g transform="translate(0.000000,512.000000) scale(0.100000,-0.100000)"
fill="#000000" stroke="none">
<path d="M1655 5101 c-163 -30 -334 -81 -445 -133 -25 -11 -68 -31 -97 -44
-79 -35 -255 -146 -350 -220 -147 -115 -377 -367 -433 -474 -7 -14 -16 -27
-19 -30 -11 -9 -62 -104 -115 -215 -127 -262 -185 -513 -190 -815 -4 -247 22
-431 91 -645 98 -304 256 -565 478 -791 166 -169 328 -287 545 -394 117 -59
356 -144 395 -141 2 0 24 -6 47 -15 23 -8 69 -17 102 -20 34 -4 64 -8 67 -10
12 -7 161 -17 264 -17 102 0 215 7 275 18 14 2 43 6 65 10 22 3 47 7 55 10 8
2 26 6 40 9 241 42 593 208 805 382 30 24 58 44 63 44 7 0 292 -279 323 -317
8 -8 8 -17 2 -26 -9 -11 -29 -74 -39 -121 -11 -51 -4 -165 14 -221 39 -121 54
-139 401 -486 290 -291 345 -341 401 -370 277 -139 599 -7 698 286 23 68 24
203 2 279 -33 118 -69 161 -417 508 -311 309 -333 329 -403 362 -123 56 -247
64 -369 23 l-70 -23 -162 162 c-151 151 -161 164 -148 182 8 10 40 54 72 96
243 321 386 744 390 1153 1 122 -9 308 -18 323 -2 3 -6 26 -9 51 -24 189 -130
480 -249 679 -305 510 -798 848 -1397 955 -119 21 -539 18 -665 -4z"/>
</g>
</svg>
